# xmcd CD database file
#
# Track frame offsets:
#	150
#	27195
#	51192
#	78060
#
# Disc length: 1359 seconds
#
# Revision: 0
# Processed by: cddbd v1.5.1PL0 Copyright (c) Steve Scherf et al.
# Submitted via: CDex 1.51
#
DISCID=22054d04
DTITLE=小倉 優子 - 永遠ラブリン（∂∇＜）/
DYEAR=2004
DGENRE=JPop
TTITLE0=永遠ラブリン(∂∇＜)/
TTITLE1=神秘的迷宮
TTITLE2=永遠ラブリン(∂∇＜)/ (off vocal version)
TTITLE3=神秘的迷宮 (off vocal version)
EXTD=YEAR: 2004
EXTT0=
EXTT1=
EXTT2=
EXTT3=
PLAYORDER=
